<svg width="123" height="24" fill="none" xmlns="http://www.w3.org/2000/svg"><path d="M.744 9.36c0-1.04.184-2.056.552-3.048a8.885 8.885 0 0 1 1.656-2.736 7.721 7.721 0 0 1 2.64-1.968c1.04-.496 2.224-.744 3.552-.744 1.568 0 2.92.344 4.056 1.032 1.152.688 2.008 1.584 2.568 2.688l-2.544 1.752c-.288-.64-.664-1.144-1.128-1.512a3.958 3.958 0 0 0-1.488-.792 5.36 5.36 0 0 0-1.56-.24c-.832 0-1.56.168-2.184.504a4.886 4.886 0 0 0-1.536 1.32 5.8 5.8 0 0 0-.936 1.824 7.308 7.308 0 0 0-.288 2.016c0 .752.12 1.48.36 2.184.24.688.576 1.304 1.008 1.848.448.528.976.952 1.584 1.272a4.595 4.595 0 0 0 2.04.456c.528 0 1.064-.088 1.608-.264a4.56 4.56 0 0 0 1.512-.84c.464-.384.824-.88 1.08-1.488l2.712 1.56c-.336.848-.888 1.568-1.656 2.16a8.078 8.078 0 0 1-2.544 1.344A9.12 9.12 0 0 1 9 18.144c-1.216 0-2.328-.248-3.336-.744a8.746 8.746 0 0 1-2.616-2.016 10.197 10.197 0 0 1-1.704-2.832 8.95 8.95 0 0 1-.6-3.192Zm24.661-1.152c-.976 0-1.848.192-2.616.576-.768.368-1.32.904-1.656 1.608V18h-3.216V5.424h2.952v2.688c.448-.864 1.016-1.544 1.704-2.04s1.416-.768 2.184-.816h.408c.096 0 .176.008.24.024v2.928Zm2.057 12.24c.288.064.552.12.792.168.256.048.472.072.648.072.304 0 .552-.08.744-.24.208-.144.408-.416.6-.816.192-.384.392-.928.6-1.632L25.878 5.424h3.336l3.384 9.288 2.976-9.288h3.072l-5.28 15.072a4.386 4.386 0 0 1-.888 1.512 3.846 3.846 0 0 1-1.464 1.08c-.576.272-1.224.408-1.944.408-.256 0-.512-.024-.768-.072a4.784 4.784 0 0 1-.84-.192v-2.784ZM47.93 18.24c-.976 0-1.84-.216-2.592-.648a4.785 4.785 0 0 1-1.728-1.8v7.32h-3.216V5.424h2.808v2.16a5.23 5.23 0 0 1 1.824-1.728c.736-.432 1.576-.648 2.52-.648.848 0 1.624.168 2.328.504.72.336 1.344.808 1.872 1.416.528.592.936 1.28 1.224 2.064.304.768.456 1.6.456 2.496 0 1.216-.24 2.32-.72 3.312-.464.992-1.112 1.784-1.944 2.376-.816.576-1.76.864-2.832.864Zm-1.08-2.736a2.87 2.87 0 0 0 1.344-.312 3.27 3.27 0 0 0 1.032-.84 3.67 3.67 0 0 0 .672-1.224c.16-.464.24-.944.24-1.44a3.97 3.97 0 0 0-.264-1.464c-.16-.448-.4-.84-.72-1.176a3.345 3.345 0 0 0-1.128-.816 3.225 3.225 0 0 0-1.368-.288c-.304 0-.616.056-.936.168-.304.096-.6.24-.888.432a3.86 3.86 0 0 0-.768.672c-.208.256-.36.536-.456.84v2.952c.192.464.448.888.768 1.272.336.384.72.688 1.152.912.432.208.872.312 1.32.312Zm16.127 1.848c-.272.112-.6.24-.984.384-.384.144-.8.256-1.248.336a6.067 6.067 0 0 1-1.32.144 4.178 4.178 0 0 1-1.632-.312 2.67 2.67 0 0 1-1.2-.984c-.288-.464-.432-1.064-.432-1.8V7.896h-1.656V5.424h1.656v-4.08h3.216v4.08h2.64v2.472h-2.64v6.144c.016.432.136.744.36.936.224.192.504.288.84.288.336 0 .664-.056.984-.168.32-.112.576-.208.768-.288l.648 2.544Zm7.342.888c-1.024 0-1.944-.168-2.76-.504a6.244 6.244 0 0 1-2.088-1.44 6.545 6.545 0 0 1-1.296-2.088 6.778 6.778 0 0 1-.456-2.472c0-.88.152-1.712.456-2.496a6.545 6.545 0 0 1 1.296-2.088 5.963 5.963 0 0 1 2.088-1.416c.816-.352 1.736-.528 2.76-.528 1.024 0 1.936.176 2.736.528a5.963 5.963 0 0 1 2.088 1.416 6.028 6.028 0 0 1 1.296 2.088c.304.784.456 1.616.456 2.496 0 .864-.152 1.688-.456 2.472a6.028 6.028 0 0 1-1.296 2.088 5.988 5.988 0 0 1-2.064 1.44c-.816.336-1.736.504-2.76.504Zm-3.288-6.504c0 .736.144 1.392.432 1.968.288.56.68 1 1.176 1.32.496.32 1.056.48 1.68.48.608 0 1.16-.16 1.656-.48a3.553 3.553 0 0 0 1.176-1.344c.304-.576.456-1.232.456-1.968 0-.72-.152-1.368-.456-1.944-.288-.576-.68-1.024-1.176-1.344a2.99 2.99 0 0 0-1.656-.48c-.624 0-1.184.168-1.68.504-.496.32-.888.768-1.176 1.344-.288.56-.432 1.208-.432 1.944Z" fill="#fff"/><path d="M78.346 9.36c0-1.04.184-2.056.552-3.048a8.885 8.885 0 0 1 1.656-2.736 7.721 7.721 0 0 1 2.64-1.968c1.04-.496 2.224-.744 3.552-.744 1.568 0 2.92.344 4.056 1.032 1.152.688 2.008 1.584 2.568 2.688l-2.544 1.752c-.288-.64-.664-1.144-1.128-1.512a3.958 3.958 0 0 0-1.488-.792 5.36 5.36 0 0 0-1.56-.24c-.832 0-1.56.168-2.184.504a4.886 4.886 0 0 0-1.536 1.32 5.8 5.8 0 0 0-.936 1.824 7.308 7.308 0 0 0-.288 2.016c0 .752.12 1.48.36 2.184.24.688.576 1.304 1.008 1.848.448.528.976.952 1.584 1.272a4.595 4.595 0 0 0 2.04.456c.528 0 1.064-.088 1.608-.264a4.56 4.56 0 0 0 1.512-.84c.464-.384.824-.88 1.08-1.488l2.712 1.56c-.336.848-.888 1.568-1.656 2.16a8.078 8.078 0 0 1-2.544 1.344 9.12 9.12 0 0 1-2.808.456c-1.216 0-2.328-.248-3.336-.744a8.746 8.746 0 0 1-2.616-2.016 10.197 10.197 0 0 1-1.704-2.832 8.95 8.95 0 0 1-.6-3.192Zm16.309 4.92c0-.816.224-1.528.672-2.136.464-.624 1.104-1.104 1.92-1.44.816-.336 1.752-.504 2.808-.504.528 0 1.064.04 1.608.12a5.51 5.51 0 0 1 1.416.384v-.672c0-.8-.24-1.416-.72-1.848-.464-.432-1.16-.648-2.088-.648-.688 0-1.344.12-1.968.36-.624.24-1.28.592-1.968 1.056L95.303 6.84c.832-.544 1.68-.952 2.544-1.224.88-.272 1.8-.408 2.76-.408 1.792 0 3.184.448 4.176 1.344 1.008.896 1.512 2.176 1.512 3.84V14.4c0 .336.056.576.168.72.128.144.328.232.6.264V18c-.288.048-.552.088-.792.12a4.164 4.164 0 0 1-.576.048c-.64 0-1.128-.144-1.464-.432a1.86 1.86 0 0 1-.6-1.056l-.072-.648a5.498 5.498 0 0 1-2.04 1.632 5.807 5.807 0 0 1-2.496.576c-.832 0-1.584-.168-2.256-.504a4.17 4.17 0 0 1-1.56-1.416 3.863 3.863 0 0 1-.552-2.04Zm7.824.648a3.38 3.38 0 0 0 .432-.576c.112-.192.168-.368.168-.528v-1.272a5.96 5.96 0 0 0-1.248-.36 6.08 6.08 0 0 0-1.272-.144c-.832 0-1.52.184-2.064.552-.528.352-.792.824-.792 1.416 0 .32.088.624.264.912.176.288.432.52.768.696.336.176.736.264 1.2.264.48 0 .952-.088 1.416-.264.464-.192.84-.424 1.128-.696Zm14.357 3.312c-.976 0-1.84-.216-2.592-.648a4.785 4.785 0 0 1-1.728-1.8v7.32H109.3V5.424h2.808v2.16a5.23 5.23 0 0 1 1.824-1.728c.736-.432 1.576-.648 2.52-.648.848 0 1.624.168 2.328.504.72.336 1.344.808 1.872 1.416.528.592.936 1.28 1.224 2.064.304.768.456 1.6.456 2.496 0 1.216-.24 2.32-.72 3.312-.464.992-1.112 1.784-1.944 2.376-.816.576-1.76.864-2.832.864Zm-1.08-2.736a2.87 2.87 0 0 0 1.344-.312 3.27 3.27 0 0 0 1.032-.84 3.67 3.67 0 0 0 .672-1.224c.16-.464.24-.944.24-1.44a3.97 3.97 0 0 0-.264-1.464c-.16-.448-.4-.84-.72-1.176a3.345 3.345 0 0 0-1.128-.816 3.225 3.225 0 0 0-1.368-.288c-.304 0-.616.056-.936.168-.304.096-.6.24-.888.432a3.86 3.86 0 0 0-.768.672c-.208.256-.36.536-.456.84v2.952c.192.464.448.888.768 1.272.336.384.72.688 1.152.912.432.208.872.312 1.32.312Z" fill="#0FAE96"/></svg>