<svg style="display: none;" aria-hidden="true" xmlns="http://www.w3.org/2000/svg" xmlns:xlink="http://www.w3.org/1999/xlink"><symbol viewBox="0 0 18 18" id="facebook"><path d="M18 9.055C18 4.053 13.972 0 9 0S0 4.053 0 9.055C0 13.575 3.291 17.32 7.594 18v-6.328H5.307V9.055h2.287V7.06c0-2.27 1.342-3.523 3.4-3.523.984 0 2.014.177 2.014.177V5.94h-1.135c-1.118 0-1.467.698-1.467 1.414v1.7h2.496l-.399 2.617h-2.097V18C14.71 17.32 18 13.574 18 9.055z"/></symbol><symbol viewBox="0 0 32 32" id="icon-card1"><path d="M14.987.031a70.72 70.72 0 01-.774.08c-1.978.197-4.269.93-6.018 1.925C3.655 4.618.724 9.027.099 14.213c-.091.758-.091 2.816 0 3.574.257 2.129.95 4.283 1.937 6.018 2.345 4.123 6.27 6.98 10.817 7.873 1.183.232 1.836.293 3.147.293 1.311 0 1.964-.061 3.147-.293 1.593-.313 3.299-.94 4.658-1.714 4.123-2.345 6.98-6.27 7.873-10.817.232-1.183.293-1.836.293-3.147 0-1.311-.061-1.964-.293-3.147-.313-1.593-.94-3.299-1.714-4.658C27.417 3.716 23.081.793 18 .128c-.568-.074-2.634-.141-3.013-.097m2.826 3.092c.865.13 1.45.272 2.313.559a12.943 12.943 0 017.53 6.585 13.487 13.487 0 011.232 3.973c.129.848.129 2.672 0 3.52-.425 2.8-1.608 5.242-3.491 7.207-2.047 2.136-4.636 3.466-7.637 3.921-.848.129-2.672.129-3.52 0-2.802-.425-5.24-1.606-7.206-3.49-2.143-2.053-3.457-4.613-3.921-7.638-.131-.85-.131-2.67 0-3.52.221-1.444.62-2.731 1.23-3.973 1.995-4.064 5.947-6.783 10.501-7.226.671-.065 2.291-.021 2.969.082M14.995 8.59c-.781.139-1.765.598-2.435 1.137-.931.747-1.555 1.71-1.884 2.907l-.141.513-.001 2.826c-.001 2.756.002 2.839.119 3.297.332 1.304 1.106 2.452 2.155 3.199.445.317 1.222.687 1.779.848.376.108.542.123 1.413.123 1.173 0 1.49-.07 2.427-.533 1.486-.734 2.503-2 2.92-3.637.117-.458.12-.543.12-3.27s-.003-2.812-.12-3.27a5.524 5.524 0 00-.759-1.737 5.405 5.405 0 00-2.249-1.95c-.819-.388-1.165-.464-2.179-.485-.484-.011-1.008.004-1.165.032m2.036 3.131c.689.32 1.263 1.034 1.416 1.762.081.385.081 4.649 0 5.034-.152.726-.724 1.438-1.416 1.765-.35.164-.391.171-1.031.171-.64 0-.681-.007-1.031-.171-.692-.327-1.264-1.039-1.416-1.765-.081-.385-.081-4.649 0-5.034.091-.433.294-.816.62-1.168a2.397 2.397 0 011.036-.692c.234-.086.389-.102.871-.088.526.016.624.035.951.186"/></symbol><symbol viewBox="0 0 32 32" id="icon-card2"><path d="M14.987.031a70.72 70.72 0 01-.774.08c-1.978.197-4.269.93-6.018 1.925C3.655 4.618.724 9.027.099 14.213c-.091.758-.091 2.816 0 3.574.257 2.129.95 4.283 1.937 6.018 2.345 4.123 6.27 6.98 10.817 7.873 1.183.232 1.836.293 3.147.293 1.311 0 1.964-.061 3.147-.293 1.593-.313 3.299-.94 4.658-1.714 4.123-2.345 6.98-6.27 7.873-10.817.232-1.183.293-1.836.293-3.147 0-1.311-.061-1.964-.293-3.147-.313-1.593-.94-3.299-1.714-4.658C27.417 3.716 23.081.793 18 .128c-.568-.074-2.634-.141-3.013-.097m2.826 3.092c.865.13 1.45.272 2.313.559a12.943 12.943 0 017.53 6.585 13.487 13.487 0 011.232 3.973c.129.848.129 2.672 0 3.52-.425 2.8-1.608 5.242-3.491 7.207-2.047 2.136-4.636 3.466-7.637 3.921-.848.129-2.672.129-3.52 0-2.802-.425-5.24-1.606-7.206-3.49-2.143-2.053-3.457-4.613-3.921-7.638-.131-.85-.131-2.67 0-3.52.221-1.444.62-2.731 1.23-3.973 1.995-4.064 5.947-6.783 10.501-7.226.671-.065 2.291-.021 2.969.082m-3.306 4.873v1.489l-.36.035c-1.63.16-2.952 1.224-3.469 2.791-.117.352-.136.51-.14 1.129-.005.85.052 1.125.37 1.787a3.925 3.925 0 001.812 1.844c.758.377.787.381 3.04.417 2.187.035 2.184.034 2.464.334.153.164.283.478.283.685 0 .206-.13.521-.283.684-.292.313-.161.301-3.571.318l-3.133.015v2.983h2.987v2.986h2.986v-2.978l.36-.035a4.022 4.022 0 003.463-2.773c.123-.373.142-.518.146-1.147.006-.85-.051-1.125-.37-1.787a3.925 3.925 0 00-1.812-1.844c-.758-.377-.787-.381-3.04-.417-2.187-.035-2.184-.034-2.464-.334a1.169 1.169 0 01-.281-.696c.002-.405.337-.836.733-.946.126-.035 1.308-.056 3.225-.056h3.027V9.493h-2.987V6.507h-2.986v1.489"/></symbol><symbol viewBox="0 0 18 18" id="instagram"><path d="M9 1.622c2.403 0 2.688.009 3.637.052.877.04 1.354.187 1.67.31.421.163.72.358 1.036.673.315.315.51.615.673 1.035.123.317.27.794.31 1.671.043.95.052 1.234.052 3.637s-.009 2.688-.052 3.637c-.04.877-.187 1.354-.31 1.671-.163.42-.358.72-.673 1.035-.315.315-.615.51-1.035.673-.317.123-.794.27-1.671.31-.95.043-1.234.052-3.637.052s-2.688-.009-3.637-.052c-.877-.04-1.354-.187-1.67-.31a2.788 2.788 0 01-1.036-.673 2.788 2.788 0 01-.673-1.035c-.123-.317-.27-.794-.31-1.671-.043-.95-.052-1.234-.052-3.637s.009-2.688.052-3.637c.04-.877.187-1.354.31-1.67.163-.421.358-.72.673-1.036.315-.315.615-.51 1.035-.673.317-.123.794-.27 1.671-.31.95-.043 1.234-.052 3.637-.052zM9 0C6.556 0 6.25.01 5.29.054 4.33.098 3.676.25 3.104.473A4.412 4.412 0 001.51 1.51c-.5.5-.809 1.002-1.039 1.594C.25 3.677.098 4.33.054 5.289.01 6.25 0 6.556 0 9s.01 2.75.054 3.71c.044.959.196 1.613.418 2.185.23.592.538 1.094 1.039 1.595.5.5 1.002.808 1.594 1.038.572.222 1.226.374 2.184.418C6.25 17.99 6.556 18 9 18s2.75-.01 3.71-.054c.959-.044 1.613-.196 2.185-.419a4.411 4.411 0 001.594-1.038c.5-.5.808-1.002 1.038-1.594.223-.572.375-1.226.419-2.184C17.99 11.75 18 11.444 18 9s-.01-2.75-.054-3.71c-.044-.959-.196-1.613-.419-2.185A4.41 4.41 0 0016.49 1.51 4.41 4.41 0 0014.895.473C14.323.25 13.67.098 12.711.054 11.75.01 11.444 0 9 0zm0 4.378a4.622 4.622 0 100 9.244 4.622 4.622 0 000-9.244zM9 12a3 3 0 110-6 3 3 0 010 6zm5.884-7.804a1.08 1.08 0 11-2.16 0 1.08 1.08 0 012.16 0z"/></symbol><symbol viewBox="0 0 16 18" id="tiktok"><path d="M8.215.015C9.196 0 10.172.01 11.147 0c.06 1.148.472 2.318 1.313 3.13.838.831 2.025 1.212 3.179 1.341v3.02c-1.082-.035-2.168-.26-3.15-.726-.428-.194-.826-.443-1.216-.698-.005 2.192.01 4.38-.014 6.563a5.71 5.71 0 01-1.014 2.957c-.981 1.438-2.684 2.376-4.433 2.405-1.073.061-2.144-.231-3.058-.77-1.515-.893-2.581-2.529-2.736-4.284-.018-.375-.025-.75-.01-1.116a5.623 5.623 0 011.937-3.721c1.242-1.082 2.982-1.597 4.611-1.292.016 1.11-.029 2.22-.029 3.332-.744-.241-1.614-.174-2.264.278-.475.308-.835.78-1.023 1.313-.156.38-.111.802-.102 1.206.178 1.231 1.362 2.265 2.625 2.154.838-.01 1.64-.495 2.077-1.207.141-.25.3-.504.308-.797.074-1.342.044-2.678.053-4.02.006-3.023-.009-6.038.014-9.052z"/></symbol><symbol viewBox="0 0 18 15" id="twitter"><path d="M5.66 14.91c6.793 0 10.508-5.627 10.508-10.507 0-.16 0-.319-.01-.477A7.513 7.513 0 0018 2.014a7.371 7.371 0 01-2.121.581A3.706 3.706 0 0017.503.553a7.4 7.4 0 01-2.346.896 3.696 3.696 0 00-6.293 3.368A10.485 10.485 0 011.253.96a3.696 3.696 0 001.143 4.93A3.665 3.665 0 01.72 5.426v.047a3.694 3.694 0 002.963 3.62 3.687 3.687 0 01-1.668.064 3.698 3.698 0 003.45 2.564A7.411 7.411 0 010 13.252a10.456 10.456 0 005.66 1.656"/></symbol></svg>