<svg width="153" height="41" fill="none" xmlns="http://www.w3.org/2000/svg"><path d="M69.118 17.476h-6.917l-.037-2.906h6.28c1.037 0 1.943-.175 2.717-.525.775-.35 1.375-.85 1.8-1.5.437-.662.656-1.449.656-2.361 0-1-.194-1.812-.581-2.437-.375-.637-.956-1.1-1.743-1.387-.775-.3-1.762-.45-2.962-.45h-5.324v24.331H59.39V2.948h8.941c1.4 0 2.65.144 3.749.432 1.1.275 2.03.712 2.793 1.312a5.584 5.584 0 0 1 1.762 2.25c.4.911.6 2.005.6 3.28 0 1.124-.288 2.143-.862 3.055-.575.9-1.375 1.637-2.4 2.212-1.012.575-2.2.943-3.561 1.106l-1.294.88ZM68.95 30.24h-8.173l2.043-2.943h6.13c1.15 0 2.124-.2 2.924-.6.812-.4 1.43-.962 1.856-1.687.424-.737.637-1.606.637-2.605 0-1.013-.181-1.887-.544-2.625-.362-.737-.93-1.305-1.706-1.705-.774-.4-1.774-.6-2.999-.6h-5.155l.038-2.906h7.048l.768 1.05c1.313.113 2.425.487 3.337 1.125a6.112 6.112 0 0 1 2.08 2.399c.488.975.732 2.05.732 3.224 0 1.7-.375 3.137-1.125 4.312-.737 1.162-1.78 2.049-3.13 2.661-1.35.6-2.937.9-4.761.9ZM86.551 1.449V30.24h-3.487V1.449h3.487Zm9.335 8.51v20.282h-3.487V9.959h3.487Zm-3.749-5.38c0-.562.169-1.037.506-1.424.35-.388.862-.581 1.537-.581.662 0 1.169.193 1.518.58.363.388.544.863.544 1.425 0 .538-.181 1-.544 1.387-.35.375-.855.563-1.518.563-.675 0-1.187-.188-1.537-.563a2.042 2.042 0 0 1-.506-1.387Zm12.765 9.411v16.25h-3.486V9.959h3.299l.187 4.03Zm-.712 5.341-1.612-.056c.012-1.387.194-2.668.543-3.842.35-1.188.869-2.219 1.556-3.093a6.926 6.926 0 0 1 2.568-2.025c1.025-.487 2.212-.73 3.562-.73.95 0 1.824.137 2.624.412.8.262 1.494.68 2.081 1.255.587.575 1.043 1.313 1.368 2.212.325.9.488 1.987.488 3.262V30.24H113.9V16.895c0-1.063-.181-1.912-.544-2.55a3.11 3.11 0 0 0-1.499-1.387c-.65-.3-1.413-.45-2.287-.45-1.025 0-1.881.182-2.568.544a4.34 4.34 0 0 0-1.65 1.5 6.777 6.777 0 0 0-.9 2.193 12.262 12.262 0 0 0-.262 2.586Zm13.14-1.912-2.324.713c.012-1.112.193-2.18.543-3.206a8.71 8.71 0 0 1 1.556-2.736 7.361 7.361 0 0 1 2.531-1.894c.999-.474 2.143-.712 3.43-.712 1.087 0 2.049.144 2.887.431.85.288 1.562.731 2.137 1.331.587.588 1.031 1.344 1.331 2.268.299.925.449 2.025.449 3.3V30.24h-3.486V16.876c0-1.137-.181-2.018-.544-2.643-.35-.638-.849-1.081-1.499-1.331-.638-.262-1.4-.394-2.287-.394-.762 0-1.437.132-2.025.394a4.176 4.176 0 0 0-1.48 1.087c-.4.45-.707.969-.919 1.556-.2.587-.3 1.212-.3 1.874Zm21.257-3.561v24.18H135.1V9.96h3.187l.3 3.899Zm13.665 6.073v.394c0 1.475-.175 2.843-.525 4.105-.35 1.25-.862 2.337-1.537 3.262a6.99 6.99 0 0 1-2.456 2.155c-.974.513-2.093.769-3.355.769-1.287 0-2.424-.212-3.412-.637a6.726 6.726 0 0 1-2.511-1.856c-.688-.812-1.238-1.787-1.65-2.924-.4-1.138-.675-2.419-.825-3.843v-2.1c.15-1.5.431-2.843.844-4.03.412-1.187.956-2.2 1.631-3.036a6.69 6.69 0 0 1 2.493-1.931c.974-.45 2.099-.675 3.374-.675 1.274 0 2.405.25 3.393.75a6.83 6.83 0 0 1 2.493 2.1c.674.912 1.181 2.005 1.518 3.28.35 1.262.525 2.668.525 4.217Zm-3.487.394v-.394c0-1.012-.106-1.962-.318-2.849-.213-.9-.544-1.687-.994-2.362a4.732 4.732 0 0 0-1.687-1.612c-.687-.4-1.506-.6-2.455-.6-.875 0-1.638.15-2.287.45a4.94 4.94 0 0 0-1.631 1.219 6.45 6.45 0 0 0-1.106 1.724 9.938 9.938 0 0 0-.619 1.987v4.855c.25.875.6 1.7 1.05 2.474a5.44 5.44 0 0 0 1.8 1.856c.749.462 1.693.694 2.83.694.937 0 1.743-.194 2.418-.581a4.9 4.9 0 0 0 1.687-1.631c.45-.688.781-1.475.994-2.362.212-.9.318-1.856.318-2.868ZM35.88 10.176a5.086 5.086 0 0 0 5.086-5.087 5.086 5.086 0 1 0-5.085 5.087ZM18.082 5.089c-.986 0-1.952.086-2.898.239A7.631 7.631 0 0 0 7.912.002a7.632 7.632 0 0 0-7.628 7.63 7.615 7.615 0 0 0 2.705 5.825 17.711 17.711 0 0 0-2.705 9.436c0 9.833 7.969 17.804 17.798 17.804 9.83 0 17.799-7.97 17.799-17.804 0-9.833-7.969-17.804-17.799-17.804Zm6.942 22.891a5.073 5.073 0 0 0-8.798 0 5.075 5.075 0 0 1-.686-2.543 5.088 5.088 0 0 1 5.085-5.087 5.088 5.088 0 0 1 5.085 5.087c0 .925-.254 1.795-.686 2.543Z" fill="#999"/></svg>