<svg width="214" height="41" fill="none" xmlns="http://www.w3.org/2000/svg"><path d="M66.357 19.578h-5.59l-.03-2.348h5.074c.838 0 1.57-.141 2.197-.424.626-.282 1.11-.686 1.454-1.211.353-.536.53-1.172.53-1.909 0-.808-.157-1.464-.47-1.969-.303-.515-.772-.889-1.408-1.12-.627-.243-1.424-.364-2.394-.364h-4.3v19.66h-2.923V7.84h7.224c1.131 0 2.141.116 3.03.348.888.222 1.64.576 2.257 1.06.626.475 1.1 1.08 1.423 1.818.323.737.485 1.62.485 2.65 0 .91-.232 1.732-.697 2.47-.464.726-1.11 1.322-1.939 1.787-.817.464-1.777.762-2.877.893l-1.045.712Zm-.137 10.315h-6.604l1.651-2.378h4.953c.93 0 1.717-.162 2.363-.485.657-.323 1.156-.777 1.5-1.363.343-.596.515-1.298.515-2.105 0-.818-.147-1.525-.44-2.12-.293-.597-.752-1.056-1.378-1.38-.626-.322-1.434-.484-2.423-.484H62.19l.03-2.348h5.696l.62.849c1.06.09 1.96.393 2.697.908a4.939 4.939 0 0 1 1.681 1.94c.394.787.59 1.655.59 2.604 0 1.374-.302 2.535-.908 3.484-.596.94-1.439 1.656-2.53 2.15-1.09.486-2.372.728-3.847.728Zm10.436-8.013v-.348c0-1.181.172-2.277.515-3.287.343-1.02.838-1.903 1.484-2.65a6.623 6.623 0 0 1 2.348-1.757c.92-.424 1.95-.637 3.09-.637 1.151 0 2.186.213 3.105.637a6.59 6.59 0 0 1 2.363 1.757c.656.747 1.156 1.63 1.5 2.65.343 1.01.514 2.106.514 3.287v.348c0 1.182-.171 2.277-.514 3.287a7.867 7.867 0 0 1-1.5 2.65 6.871 6.871 0 0 1-2.348 1.758c-.908.414-1.938.62-3.09.62-1.15 0-2.186-.206-3.105-.62a7.026 7.026 0 0 1-2.362-1.757 8.007 8.007 0 0 1-1.485-2.65c-.343-1.01-.515-2.106-.515-3.288Zm2.802-.348v.348c0 .818.096 1.59.288 2.318a6.1 6.1 0 0 0 .863 1.908c.394.556.884.995 1.47 1.318.585.313 1.267.47 2.044.47.768 0 1.44-.157 2.015-.47a4.23 4.23 0 0 0 1.454-1.318 6.102 6.102 0 0 0 .863-1.908c.202-.727.303-1.5.303-2.318v-.348c0-.808-.1-1.57-.303-2.287a5.89 5.89 0 0 0-.878-1.924 4.174 4.174 0 0 0-1.454-1.333c-.576-.323-1.252-.484-2.03-.484-.767 0-1.444.161-2.03.484a4.357 4.357 0 0 0-1.454 1.333 6.08 6.08 0 0 0-.863 1.924 8.813 8.813 0 0 0-.288 2.287Zm14.889.348v-.348c0-1.181.172-2.277.515-3.287.344-1.02.838-1.903 1.485-2.65a6.622 6.622 0 0 1 2.347-1.757c.92-.424 1.949-.637 3.09-.637 1.151 0 2.186.213 3.105.637.929.414 1.717 1 2.363 1.757.656.747 1.156 1.63 1.5 2.65.343 1.01.514 2.106.514 3.287v.348c0 1.182-.171 2.277-.514 3.287a7.884 7.884 0 0 1-1.5 2.65 6.868 6.868 0 0 1-2.348 1.758c-.908.414-1.938.62-3.09.62-1.151 0-2.186-.206-3.105-.62a7.025 7.025 0 0 1-2.362-1.757 8.006 8.006 0 0 1-1.485-2.65c-.343-1.01-.515-2.106-.515-3.288Zm2.802-.348v.348c0 .818.096 1.59.288 2.318a6.1 6.1 0 0 0 .864 1.908 4.37 4.37 0 0 0 1.469 1.318c.585.313 1.267.47 2.044.47.768 0 1.439-.157 2.015-.47a4.23 4.23 0 0 0 1.454-1.318 6.097 6.097 0 0 0 .863-1.908c.202-.727.303-1.5.303-2.318v-.348c0-.808-.101-1.57-.303-2.287a5.886 5.886 0 0 0-.878-1.924 4.182 4.182 0 0 0-1.454-1.333c-.576-.323-1.252-.484-2.03-.484-.767 0-1.444.161-2.03.484a4.358 4.358 0 0 0-1.454 1.333 6.08 6.08 0 0 0-.863 1.924 8.817 8.817 0 0 0-.288 2.287Zm18.418-4.772v13.133h-2.817V13.504h2.666l.151 3.257Zm-.575 4.318-1.303-.046c.01-1.12.157-2.156.439-3.105.283-.96.702-1.792 1.258-2.499a5.583 5.583 0 0 1 2.075-1.636c.828-.394 1.787-.59 2.878-.59.767 0 1.474.11 2.12.333a4.27 4.27 0 0 1 1.681 1.014c.475.465.843 1.06 1.106 1.788.263.727.394 1.605.394 2.635v10.92h-2.802V19.11c0-.859-.147-1.545-.44-2.06a2.506 2.506 0 0 0-1.211-1.121c-.525-.243-1.141-.364-1.848-.364-.828 0-1.52.147-2.075.44a3.5 3.5 0 0 0-1.333 1.211 5.453 5.453 0 0 0-.727 1.772 9.934 9.934 0 0 0-.212 2.09Zm10.617-1.545-1.878.575a8.24 8.24 0 0 1 .44-2.59 7 7 0 0 1 1.257-2.211 5.946 5.946 0 0 1 2.045-1.53c.807-.384 1.731-.576 2.771-.576.879 0 1.656.117 2.333.349.687.232 1.262.59 1.727 1.075.474.475.833 1.086 1.075 1.833.242.747.363 1.636.363 2.666v10.769h-2.817v-10.8c0-.919-.146-1.63-.439-2.135a2.29 2.29 0 0 0-1.212-1.076c-.515-.212-1.131-.318-1.848-.318-.616 0-1.161.106-1.635.318a3.377 3.377 0 0 0-1.197.879c-.323.363-.57.782-.742 1.257-.162.475-.243.98-.243 1.515Zm21.175 10.663c-1.141 0-2.176-.192-3.105-.576a7.043 7.043 0 0 1-2.378-1.65 7.34 7.34 0 0 1-1.514-2.515c-.354-.97-.531-2.03-.531-3.18v-.637c0-1.333.197-2.52.591-3.56.394-1.05.929-1.938 1.606-2.665a6.874 6.874 0 0 1 2.302-1.651 6.611 6.611 0 0 1 2.666-.56c1.171 0 2.181.201 3.029.605.858.404 1.56.97 2.105 1.697.546.717.95 1.565 1.212 2.544.263.97.394 2.03.394 3.181v1.257h-12.238V20.2h9.436v-.212a6.995 6.995 0 0 0-.455-2.12 3.81 3.81 0 0 0-1.211-1.697c-.556-.444-1.313-.666-2.272-.666a3.81 3.81 0 0 0-1.757.409 3.746 3.746 0 0 0-1.379 1.181c-.383.525-.681 1.166-.893 1.924-.212.757-.318 1.63-.318 2.62v.636c0 .778.106 1.51.318 2.196.222.677.54 1.273.954 1.788a4.56 4.56 0 0 0 1.53 1.211c.606.293 1.292.44 2.06.44.989 0 1.827-.202 2.514-.606a6.22 6.22 0 0 0 1.802-1.62l1.697 1.347a7.868 7.868 0 0 1-1.348 1.53c-.545.485-1.217.878-2.015 1.181-.787.303-1.721.455-2.802.455Zm12.451-14.116v13.813h-2.802V13.504h2.726l.076 2.575Zm5.119-2.666-.015 2.605a4.039 4.039 0 0 0-.666-.091 7.096 7.096 0 0 0-.697-.03c-.646 0-1.217.1-1.712.302a3.542 3.542 0 0 0-1.257.849 4.088 4.088 0 0 0-.818 1.302 6.231 6.231 0 0 0-.378 1.636l-.788.454c0-.99.096-1.918.288-2.787.202-.868.51-1.635.924-2.302a4.524 4.524 0 0 1 1.575-1.575c.646-.384 1.414-.576 2.302-.576.202 0 .434.026.697.076.262.04.444.086.545.137Zm11.648 13.676v-8.436c0-.646-.132-1.206-.394-1.681a2.58 2.58 0 0 0-1.151-1.12c-.515-.264-1.151-.395-1.909-.395-.707 0-1.328.121-1.863.364-.525.242-.939.56-1.242.954a2.09 2.09 0 0 0-.439 1.272h-2.802c0-.585.151-1.166.454-1.741.303-.576.737-1.096 1.303-1.56.576-.475 1.262-.849 2.06-1.121.808-.283 1.706-.425 2.696-.425 1.191 0 2.242.202 3.15.606.919.404 1.636 1.015 2.151 1.833.525.808.788 1.823.788 3.044v7.634c0 .545.045 1.126.136 1.742a6.84 6.84 0 0 0 .439 1.59v.243h-2.923c-.141-.323-.252-.753-.333-1.288a10.352 10.352 0 0 1-.121-1.514Zm.484-7.133.031 1.969h-2.833c-.797 0-1.509.065-2.135.197-.626.12-1.151.308-1.576.56-.424.253-.747.57-.969.954-.222.374-.333.813-.333 1.318 0 .515.116.985.348 1.409.232.424.581.762 1.045 1.014.475.243 1.056.364 1.742.364.858 0 1.616-.182 2.272-.545.656-.364 1.176-.808 1.56-1.333.394-.525.606-1.035.636-1.53l1.197 1.348c-.071.424-.263.894-.576 1.409a6.736 6.736 0 0 1-1.257 1.484 6.787 6.787 0 0 1-1.848 1.166c-.707.303-1.504.455-2.393.455-1.111 0-2.085-.217-2.923-.652-.828-.434-1.474-1.014-1.939-1.741a4.614 4.614 0 0 1-.681-2.47c0-.878.171-1.65.515-2.317a4.473 4.473 0 0 1 1.484-1.68c.646-.455 1.424-.799 2.332-1.03.909-.233 1.924-.35 3.045-.35h3.256Zm9.528-2.954v12.89h-2.803V13.504h2.651l.152 3.5Zm-.667 4.075-1.166-.046c.01-1.12.176-2.156.5-3.105.323-.96.777-1.792 1.363-2.499a6.064 6.064 0 0 1 2.09-1.636c.818-.394 1.722-.59 2.711-.59.808 0 1.535.11 2.181.333a3.945 3.945 0 0 1 1.651 1.03c.465.474.818 1.09 1.061 1.848.242.747.363 1.66.363 2.741v10.739h-2.817v-10.77c0-.858-.126-1.544-.379-2.06-.252-.524-.621-.903-1.106-1.135-.484-.243-1.08-.364-1.787-.364-.697 0-1.333.147-1.908.44a4.56 4.56 0 0 0-1.469 1.211 6.114 6.114 0 0 0-.955 1.772 6.48 6.48 0 0 0-.333 2.09Zm25.628-7.574h2.544v16.04c0 1.444-.292 2.676-.878 3.696a5.726 5.726 0 0 1-2.454 2.318c-1.04.535-2.241.802-3.605.802-.565 0-1.232-.09-1.999-.272a8.066 8.066 0 0 1-2.242-.894 5.59 5.59 0 0 1-1.832-1.681l1.469-1.666c.686.828 1.403 1.403 2.151 1.726.757.324 1.504.485 2.241.485.889 0 1.656-.166 2.303-.5a3.486 3.486 0 0 0 1.499-1.484c.364-.646.545-1.444.545-2.393V17.109l.258-3.605Zm-11.284 8.376v-.318c0-1.252.146-2.388.439-3.408.303-1.03.732-1.913 1.287-2.65a5.784 5.784 0 0 1 2.045-1.697c.798-.404 1.697-.606 2.696-.606 1.03 0 1.929.182 2.696.546a5.182 5.182 0 0 1 1.969 1.56c.546.676.975 1.494 1.288 2.454.313.959.53 2.044.651 3.256v1.393c-.111 1.202-.328 2.282-.651 3.242-.313.96-.742 1.777-1.288 2.453a5.382 5.382 0 0 1-1.969 1.56c-.777.354-1.686.53-2.726.53-.98 0-1.868-.206-2.666-.62a6.071 6.071 0 0 1-2.029-1.742c-.566-.747-1-1.626-1.303-2.636-.293-1.02-.439-2.125-.439-3.317Zm2.802-.318v.318c0 .818.081 1.586.242 2.303a6.26 6.26 0 0 0 .773 1.893c.353.545.802.974 1.348 1.287.545.303 1.196.455 1.954.455.929 0 1.696-.197 2.302-.591a4.28 4.28 0 0 0 1.439-1.56 9.034 9.034 0 0 0 .848-2.105v-3.65a7.453 7.453 0 0 0-.515-1.606 4.931 4.931 0 0 0-.879-1.394 3.791 3.791 0 0 0-1.317-.984c-.525-.243-1.141-.364-1.848-.364-.768 0-1.429.162-1.984.485a3.855 3.855 0 0 0-1.348 1.303c-.344.545-.601 1.181-.773 1.908a10.49 10.49 0 0 0-.242 2.302Zm-184.31-3.839c7.806-4.904 18.337-1.272 13.934 7.31-4.404 8.577-44.67-7.32-28.167.58 16.501 7.9 22.863 23.99 29.616 8.78 6.753-15.21 14.89-48.123-7.994-28.12-22.884 20-17.132 17.564-7.389 11.449Z" fill="#999"/></svg>