<svg width="155" height="41" fill="none" xmlns="http://www.w3.org/2000/svg"><path d="M64.788 29.866h-4.605l.03-2.378h4.575c1.575 0 2.888-.328 3.938-.985 1.05-.666 1.838-1.595 2.363-2.786.535-1.202.802-2.606.802-4.211v-1.348c0-1.262-.151-2.383-.454-3.363-.303-.99-.747-1.822-1.333-2.499a5.63 5.63 0 0 0-2.15-1.56c-.839-.353-1.803-.53-2.893-.53h-4.969V7.813h4.969c1.443 0 2.761.242 3.953.727a8.498 8.498 0 0 1 3.074 2.075c.869.899 1.535 1.99 2 3.271.464 1.273.697 2.707.697 4.302v1.318c0 1.595-.233 3.034-.697 4.317-.465 1.272-1.136 2.357-2.015 3.256-.868.899-1.918 1.59-3.15 2.075-1.222.475-2.6.712-4.135.712ZM61.743 7.813v22.053H58.82V7.813h2.923Zm19.812 8.239v13.814h-2.802V13.478h2.726l.076 2.574Zm5.12-2.665-.016 2.605a4.047 4.047 0 0 0-.666-.091 7.08 7.08 0 0 0-.697-.03c-.646 0-1.217.1-1.711.303a3.547 3.547 0 0 0-1.258.848 4.082 4.082 0 0 0-.817 1.302 6.26 6.26 0 0 0-.38 1.636l-.787.455c0-.99.096-1.919.288-2.787.202-.869.51-1.636.924-2.303a4.523 4.523 0 0 1 1.575-1.575c.646-.383 1.414-.575 2.302-.575.202 0 .435.025.697.075.263.04.444.086.545.137Zm1.545 8.467v-.349c0-1.181.171-2.277.514-3.287.344-1.02.839-1.903 1.485-2.65a6.622 6.622 0 0 1 2.347-1.757c.92-.424 1.95-.636 3.09-.636 1.151 0 2.186.212 3.105.636.93.414 1.717 1 2.363 1.757.656.747 1.156 1.63 1.5 2.65.343 1.01.515 2.106.515 3.287v.349c0 1.181-.172 2.277-.515 3.286a7.882 7.882 0 0 1-1.5 2.65 6.866 6.866 0 0 1-2.348 1.758c-.908.414-1.938.62-3.09.62-1.15 0-2.186-.206-3.104-.62a7.024 7.024 0 0 1-2.363-1.757 8.006 8.006 0 0 1-1.485-2.65c-.343-1.01-.515-2.106-.515-3.287Zm2.802-.349v.349c0 .817.095 1.59.287 2.317.192.717.48 1.353.864 1.908.393.556.883.995 1.469 1.318.586.313 1.267.47 2.045.47.767 0 1.439-.157 2.014-.47a4.228 4.228 0 0 0 1.454-1.318 6.09 6.09 0 0 0 .863-1.908c.202-.727.303-1.5.303-2.317v-.349c0-.808-.101-1.57-.303-2.287a5.878 5.878 0 0 0-.878-1.924 4.175 4.175 0 0 0-1.454-1.332c-.576-.323-1.252-.485-2.03-.485-.767 0-1.444.162-2.03.485a4.357 4.357 0 0 0-1.453 1.332 6.082 6.082 0 0 0-.864 1.924 8.817 8.817 0 0 0-.287 2.287Zm18.433-4.877v19.539h-2.818v-22.69h2.575l.243 3.151Zm11.041 4.907v.319c0 1.191-.141 2.297-.424 3.317-.282 1.01-.696 1.888-1.242 2.635a5.645 5.645 0 0 1-1.984 1.742c-.787.414-1.691.62-2.711.62-1.04 0-1.959-.17-2.757-.514a5.44 5.44 0 0 1-2.029-1.5c-.556-.656-1-1.444-1.333-2.362-.323-.92-.545-1.954-.667-3.105V20.99c.122-1.211.349-2.297.682-3.256.333-.96.772-1.778 1.318-2.454a5.41 5.41 0 0 1 2.014-1.56c.788-.364 1.697-.545 2.727-.545 1.029 0 1.943.202 2.741.605a5.51 5.51 0 0 1 2.014 1.697c.546.737.955 1.62 1.227 2.65.283 1.02.424 2.156.424 3.409Zm-2.817.319v-.319c0-.817-.086-1.585-.257-2.302a5.835 5.835 0 0 0-.803-1.908 3.823 3.823 0 0 0-1.363-1.303c-.556-.323-1.217-.484-1.984-.484-.707 0-1.323.12-1.848.363a4 4 0 0 0-1.318.985 5.232 5.232 0 0 0-.894 1.393 8.008 8.008 0 0 0-.499 1.605v3.923c.201.707.484 1.374.848 2a4.39 4.39 0 0 0 1.454 1.5c.606.373 1.368.56 2.287.56.757 0 1.409-.157 1.954-.47a3.955 3.955 0 0 0 1.363-1.318 6.027 6.027 0 0 0 .803-1.908 10.1 10.1 0 0 0 .257-2.317Zm9.436-15.253v23.265h-2.817V6.601h2.817Zm11.3 23.568c-1.141 0-2.176-.192-3.105-.576a7.034 7.034 0 0 1-2.378-1.65 7.327 7.327 0 0 1-1.515-2.515c-.353-.97-.53-2.03-.53-3.18v-.637c0-1.333.197-2.52.591-3.56.393-1.05.929-1.938 1.605-2.665a6.886 6.886 0 0 1 2.302-1.651 6.616 6.616 0 0 1 2.666-.56c1.171 0 2.181.202 3.029.605a5.52 5.52 0 0 1 2.106 1.697c.545.717.949 1.565 1.212 2.544.262.97.393 2.03.393 3.181v1.257h-12.238v-2.287h9.436v-.212a6.993 6.993 0 0 0-.454-2.12 3.813 3.813 0 0 0-1.212-1.697c-.555-.444-1.313-.666-2.272-.666a3.81 3.81 0 0 0-1.757.409 3.745 3.745 0 0 0-1.378 1.181c-.384.525-.682 1.166-.894 1.924-.212.757-.318 1.63-.318 2.62v.636c0 .778.106 1.51.318 2.197.222.676.54 1.272.954 1.787.425.515.934.919 1.53 1.212.606.292 1.293.439 2.06.439.99 0 1.828-.202 2.514-.606a6.224 6.224 0 0 0 1.803-1.62l1.696 1.347a7.802 7.802 0 0 1-1.348 1.53c-.545.485-1.217.879-2.014 1.181-.788.303-1.722.455-2.802.455Zm16.509-16.691v2.15h-8.86v-2.15h8.86Zm-5.861-3.984h2.802v16.313c0 .555.086.974.257 1.257.172.283.394.47.667.56.272.091.565.137.878.137a4.6 4.6 0 0 0 .727-.06c.263-.051.46-.092.591-.122l.015 2.287c-.222.07-.515.136-.878.197-.354.07-.783.106-1.288.106a4.362 4.362 0 0 1-1.893-.409c-.576-.273-1.035-.727-1.379-1.363-.333-.646-.499-1.515-.499-2.605V9.494ZM3.71 12.238C15.257-7.809 35.832-1.619 29.37 19.157c-6.464 20.775 12.52.93 11.604 12.966-.915 12.036-36.837 11.11-25.294-.936 11.538-12.046 12.866-16.181.997-8.429-11.87 7.753-21.81 4.828-12.968-10.52Z" fill="#999"/><path d="M3.71 12.238C15.257-7.809 35.832-1.619 29.37 19.157c-6.464 20.775 12.52.93 11.604 12.966-.915 12.036-36.837 11.11-25.294-.936 11.538-12.046 12.866-16.181.997-8.429-11.87 7.753-21.81 4.828-12.968-10.52Z" fill="#999"/></svg>