<svg width="195" height="41" fill="none" xmlns="http://www.w3.org/2000/svg"><path d="M75.931 18.145v1.394c0 1.656-.207 3.14-.62 4.453-.415 1.313-1.01 2.428-1.788 3.347a7.75 7.75 0 0 1-2.802 2.106c-1.08.484-2.292.727-3.635.727-1.303 0-2.5-.243-3.59-.727a8.07 8.07 0 0 1-2.817-2.106c-.788-.919-1.399-2.034-1.833-3.347-.434-1.313-.651-2.797-.651-4.453v-1.394c0-1.656.212-3.135.636-4.438.434-1.312 1.045-2.428 1.833-3.347a7.85 7.85 0 0 1 2.802-2.12c1.09-.485 2.287-.727 3.59-.727 1.342 0 2.554.242 3.635.727a7.679 7.679 0 0 1 2.802 2.12c.787.919 1.388 2.035 1.802 3.348.424 1.302.636 2.781.636 4.437Zm-2.893 1.394v-1.424c0-1.313-.136-2.474-.409-3.484-.262-1.01-.651-1.858-1.166-2.544a5.031 5.031 0 0 0-1.893-1.56c-.737-.354-1.575-.53-2.515-.53-.908 0-1.731.176-2.469.53a5.228 5.228 0 0 0-1.878 1.56c-.515.686-.913 1.535-1.196 2.544-.283 1.01-.424 2.171-.424 3.484v1.424c0 1.323.141 2.494.424 3.514.282 1.01.686 1.863 1.212 2.56a5.362 5.362 0 0 0 1.893 1.56c.737.353 1.56.53 2.469.53.949 0 1.792-.177 2.53-.53a4.94 4.94 0 0 0 1.862-1.56c.515-.697.904-1.55 1.166-2.56.263-1.02.394-2.191.394-3.514Zm9.648-2.909v19.54H79.87V13.48h2.575l.242 3.15Zm11.042 4.908v.318c0 1.192-.141 2.297-.424 3.317-.283 1.01-.697 1.889-1.242 2.636a5.65 5.65 0 0 1-1.984 1.742c-.788.414-1.691.62-2.711.62-1.04 0-1.96-.171-2.757-.514a5.437 5.437 0 0 1-2.03-1.5c-.555-.656-1-1.444-1.332-2.363-.324-.919-.546-1.954-.667-3.105v-1.696c.121-1.212.349-2.297.682-3.257.333-.959.772-1.777 1.317-2.453a5.41 5.41 0 0 1 2.015-1.56c.788-.364 1.696-.546 2.726-.546s1.944.202 2.742.606c.797.394 1.469.96 2.014 1.697.546.737.954 1.62 1.227 2.65.283 1.02.424 2.156.424 3.408Zm-2.817.318v-.318c0-.818-.086-1.585-.258-2.302a5.816 5.816 0 0 0-.802-1.909 3.823 3.823 0 0 0-1.363-1.302c-.556-.323-1.217-.485-1.985-.485-.706 0-1.322.121-1.847.364-.515.242-.955.57-1.318.984a5.223 5.223 0 0 0-.894 1.394 8.004 8.004 0 0 0-.5 1.605v3.923c.202.707.485 1.373.849 2a4.396 4.396 0 0 0 1.454 1.499c.605.374 1.368.56 2.287.56.757 0 1.408-.156 1.954-.47a3.956 3.956 0 0 0 1.363-1.317 6.006 6.006 0 0 0 .802-1.908c.172-.727.258-1.5.258-2.318Zm13.193 8.316c-1.141 0-2.176-.192-3.105-.576a7.039 7.039 0 0 1-2.378-1.65 7.342 7.342 0 0 1-1.515-2.515c-.353-.97-.53-2.03-.53-3.18v-.637c0-1.333.197-2.52.59-3.56.394-1.05.93-1.938 1.606-2.665a6.88 6.88 0 0 1 2.302-1.651 6.615 6.615 0 0 1 2.666-.56c1.171 0 2.181.201 3.029.605.859.404 1.56.97 2.106 1.697.545.716.949 1.565 1.211 2.544.263.97.394 2.03.394 3.181v1.257H98.242v-2.287h9.436v-.212a6.993 6.993 0 0 0-.454-2.12 3.82 3.82 0 0 0-1.212-1.697c-.555-.444-1.313-.666-2.272-.666a3.81 3.81 0 0 0-1.757.409 3.736 3.736 0 0 0-1.378 1.181c-.384.525-.682 1.166-.894 1.924-.212.757-.318 1.63-.318 2.62v.636c0 .778.106 1.51.318 2.196.222.677.54 1.273.954 1.788.424.515.934.918 1.53 1.211.606.293 1.293.44 2.06.44.99 0 1.828-.202 2.514-.606a6.223 6.223 0 0 0 1.803-1.621l1.696 1.348a7.835 7.835 0 0 1-1.348 1.53c-.545.484-1.217.878-2.014 1.181-.788.303-1.722.455-2.802.455Zm12.45-13.192v12.889h-2.802V13.48h2.65l.152 3.5Zm-.666 4.073-1.167-.045c.01-1.12.177-2.156.5-3.105.323-.96.778-1.792 1.363-2.5a6.082 6.082 0 0 1 2.09-1.635c.818-.394 1.722-.59 2.712-.59.807 0 1.535.11 2.181.333a3.957 3.957 0 0 1 1.651 1.03c.464.474.818 1.09 1.06 1.847.242.748.363 1.661.363 2.742v10.739h-2.817v-10.77c0-.858-.126-1.544-.378-2.06-.253-.524-.621-.903-1.106-1.135-.485-.243-1.081-.364-1.787-.364a4.15 4.15 0 0 0-1.909.44 4.57 4.57 0 0 0-1.469 1.211 6.086 6.086 0 0 0-.954 1.772 6.48 6.48 0 0 0-.333 2.09Zm21.401 8.816h-4.604l.03-2.378h4.574c1.576 0 2.888-.328 3.939-.985 1.05-.666 1.837-1.595 2.362-2.787.536-1.201.803-2.605.803-4.21V18.16c0-1.262-.151-2.383-.454-3.362-.303-.99-.748-1.823-1.333-2.5a5.636 5.636 0 0 0-2.151-1.56c-.838-.353-1.802-.53-2.893-.53h-4.968V7.816h4.968c1.444 0 2.762.243 3.953.728a8.492 8.492 0 0 1 3.075 2.075c.868.898 1.535 1.989 1.999 3.271.465 1.273.697 2.706.697 4.302v1.318c0 1.595-.232 3.034-.697 4.316-.464 1.273-1.136 2.358-2.014 3.257-.869.898-1.919 1.59-3.151 2.075-1.221.474-2.6.712-4.135.712Zm-3.044-22.053v22.053h-2.923V7.816h2.923Zm16.267 14.04v-.348c0-1.181.172-2.277.515-3.287.344-1.02.838-1.903 1.485-2.65a6.617 6.617 0 0 1 2.347-1.758c.919-.424 1.949-.636 3.09-.636 1.151 0 2.186.212 3.105.636.929.414 1.717 1 2.363 1.757.656.748 1.156 1.631 1.5 2.651.343 1.01.515 2.105.515 3.287v.348c0 1.182-.172 2.277-.515 3.287a7.884 7.884 0 0 1-1.5 2.65 6.868 6.868 0 0 1-2.348 1.758c-.908.414-1.938.62-3.09.62-1.151 0-2.186-.206-3.105-.62a7.028 7.028 0 0 1-2.362-1.757 8.007 8.007 0 0 1-1.485-2.651c-.343-1.01-.515-2.105-.515-3.287Zm2.802-.348v.348c0 .818.096 1.59.288 2.318a6.12 6.12 0 0 0 .863 1.908c.394.555.884.995 1.47 1.318.585.313 1.267.47 2.044.47.768 0 1.439-.157 2.015-.47a4.23 4.23 0 0 0 1.454-1.318 6.097 6.097 0 0 0 .863-1.908c.202-.727.303-1.5.303-2.318v-.348c0-.808-.101-1.57-.303-2.287a5.886 5.886 0 0 0-.878-1.924 4.182 4.182 0 0 0-1.454-1.333c-.576-.323-1.252-.484-2.03-.484-.767 0-1.444.161-2.029.484a4.358 4.358 0 0 0-1.455 1.333 6.099 6.099 0 0 0-.863 1.924 8.809 8.809 0 0 0-.288 2.287Zm14.889.348v-.348c0-1.181.172-2.277.515-3.287.344-1.02.838-1.903 1.485-2.65a6.617 6.617 0 0 1 2.347-1.758c.919-.424 1.949-.636 3.09-.636 1.151 0 2.186.212 3.105.636.929.414 1.717 1 2.363 1.757.656.748 1.156 1.631 1.5 2.651.343 1.01.515 2.105.515 3.287v.348c0 1.182-.172 2.277-.515 3.287a7.884 7.884 0 0 1-1.5 2.65 6.868 6.868 0 0 1-2.348 1.758c-.908.414-1.938.62-3.089.62-1.152 0-2.187-.206-3.106-.62a7.028 7.028 0 0 1-2.362-1.757 8.007 8.007 0 0 1-1.485-2.651c-.343-1.01-.515-2.105-.515-3.287Zm2.802-.348v.348c0 .818.096 1.59.288 2.318.192.717.48 1.353.864 1.908a4.36 4.36 0 0 0 1.469 1.318c.585.313 1.267.47 2.045.47.767 0 1.438-.157 2.014-.47a4.23 4.23 0 0 0 1.454-1.318 6.074 6.074 0 0 0 .863-1.908c.202-.727.303-1.5.303-2.318v-.348c0-.808-.101-1.57-.303-2.287a5.866 5.866 0 0 0-.878-1.924 4.174 4.174 0 0 0-1.454-1.333c-.576-.323-1.252-.484-2.03-.484-.767 0-1.444.161-2.029.484a4.346 4.346 0 0 0-1.454 1.333 6.078 6.078 0 0 0-.864 1.924 8.809 8.809 0 0 0-.288 2.287Zm18.434-5.453V29.87h-2.802V13.48h2.726l.076 2.575Zm5.119-2.666-.015 2.606a4.039 4.039 0 0 0-.666-.091 7.096 7.096 0 0 0-.697-.03c-.646 0-1.217.1-1.712.302a3.542 3.542 0 0 0-1.257.849 4.09 4.09 0 0 0-.818 1.302 6.231 6.231 0 0 0-.378 1.636l-.788.454c0-.99.096-1.918.288-2.787.202-.868.51-1.635.924-2.302a4.524 4.524 0 0 1 1.575-1.575c.646-.384 1.414-.576 2.302-.576.202 0 .434.026.697.076.262.04.444.086.545.136ZM25.88 5.089 41.137.002 25.881 20.35l15.255 20.347-15.255-5.086L41.136 0v40.697" fill="#999"/><path d="M25.88 5.089H.456l25.426 15.26L.455 35.612H25.88L.455 5.089V35.61" fill="#999"/></svg>