<svg width="131" height="41" fill="none" xmlns="http://www.w3.org/2000/svg"><path d="M71.362 38.284V14.103l.3-3.899h3.187v28.08h-3.487ZM57.735 20.57v-.394c0-1.55.181-2.955.544-4.217.362-1.275.893-2.368 1.593-3.28a7.155 7.155 0 0 1 2.53-2.1c1-.5 2.137-.75 3.412-.75s2.393.225 3.355.675a6.538 6.538 0 0 1 2.475 1.93c.687.838 1.23 1.85 1.63 3.037.4 1.188.675 2.53.825 4.03v1.725c-.137 1.487-.406 2.824-.806 4.011-.4 1.188-.943 2.2-1.63 3.037a6.755 6.755 0 0 1-2.494 1.93c-.974.438-2.105.657-3.393.657-1.25 0-2.374-.256-3.374-.769a7.455 7.455 0 0 1-2.53-2.155c-.688-.925-1.219-2.012-1.593-3.262-.363-1.262-.544-2.63-.544-4.105Zm3.486-.394v.394c0 1.012.107 1.968.32 2.868.212.887.536 1.674.974 2.362a5.123 5.123 0 0 0 1.687 1.63c.687.388 1.5.582 2.437.582 1.15 0 2.105-.25 2.868-.75a5.606 5.606 0 0 0 1.855-1.968 11.36 11.36 0 0 0 1.069-2.643v-4.518a8.973 8.973 0 0 0-.656-2.006 6.517 6.517 0 0 0-1.125-1.743 4.927 4.927 0 0 0-1.687-1.237c-.65-.313-1.412-.469-2.287-.469-.95 0-1.768.2-2.455.6-.688.4-1.256.95-1.706 1.65-.438.687-.763 1.48-.975 2.38-.212.9-.319 1.856-.319 2.868Zm22.663-6.786v17.096h-3.468V10.204h3.374l.094 3.187Zm6.336-3.299-.019 3.225a5.007 5.007 0 0 0-.825-.113 8.762 8.762 0 0 0-.862-.037c-.8 0-1.506.125-2.118.375-.612.25-1.131.6-1.556 1.05a5.05 5.05 0 0 0-1.012 1.611 7.745 7.745 0 0 0-.469 2.025l-.975.562c0-1.225.12-2.374.356-3.449.25-1.075.632-2.024 1.144-2.85.512-.836 1.162-1.486 1.95-1.949.8-.475 1.749-.712 2.849-.712.25 0 .537.031.862.094.325.05.55.106.675.168Zm10.947 17.921c.825 0 1.587-.17 2.287-.506a4.718 4.718 0 0 0 1.724-1.388c.45-.6.706-1.28.769-2.043h3.299c-.063 1.2-.469 2.318-1.219 3.356-.737 1.024-1.705 1.855-2.905 2.493-1.2.625-2.518.937-3.955.937-1.525 0-2.856-.269-3.993-.806a7.912 7.912 0 0 1-2.812-2.212 9.881 9.881 0 0 1-1.668-3.224 13.605 13.605 0 0 1-.544-3.88v-.788c0-1.362.182-2.649.544-3.861.375-1.225.931-2.306 1.668-3.243a7.915 7.915 0 0 1 2.812-2.212c1.137-.537 2.468-.806 3.993-.806 1.587 0 2.974.325 4.161.975 1.187.637 2.118 1.512 2.793 2.624.687 1.1 1.062 2.35 1.125 3.75h-3.299a4.995 4.995 0 0 0-.713-2.269 4.431 4.431 0 0 0-1.649-1.612c-.687-.413-1.493-.619-2.418-.619-1.062 0-1.956.213-2.68.638a4.696 4.696 0 0 0-1.706 1.687c-.413.7-.713 1.48-.9 2.343-.175.85-.263 1.718-.263 2.605v.788c0 .887.088 1.762.263 2.624.175.862.468 1.643.88 2.343a4.9 4.9 0 0 0 1.707 1.687c.724.412 1.624.619 2.699.619Zm11.059-7.442v-.431c0-1.462.213-2.818.638-4.068.424-1.262 1.037-2.356 1.837-3.28a8.188 8.188 0 0 1 2.905-2.175c1.137-.524 2.412-.787 3.824-.787 1.425 0 2.706.262 3.843.787a8.16 8.16 0 0 1 2.924 2.175c.812.925 1.431 2.018 1.856 3.28.425 1.25.637 2.606.637 4.068v.43c0 1.463-.212 2.819-.637 4.069-.425 1.25-1.044 2.343-1.856 3.28a8.497 8.497 0 0 1-2.906 2.174c-1.124.513-2.399.769-3.824.769-1.424 0-2.705-.256-3.842-.769a8.692 8.692 0 0 1-2.924-2.174c-.8-.937-1.413-2.03-1.837-3.28-.425-1.25-.638-2.606-.638-4.068Zm3.468-.431v.43c0 1.013.119 1.97.356 2.869a7.56 7.56 0 0 0 1.069 2.362 5.401 5.401 0 0 0 1.818 1.63c.725.388 1.568.582 2.53.582.95 0 1.781-.194 2.494-.581a5.24 5.24 0 0 0 1.799-1.631 7.56 7.56 0 0 0 1.069-2.362c.249-.9.374-1.856.374-2.868v-.431c0-1-.125-1.943-.374-2.83-.238-.9-.6-1.694-1.088-2.381a5.165 5.165 0 0 0-1.799-1.65c-.712-.4-1.55-.6-2.512-.6-.95 0-1.787.2-2.512.6-.712.4-1.312.95-1.799 1.65-.475.687-.831 1.48-1.069 2.38a10.933 10.933 0 0 0-.356 2.83ZM15.272.002H.016v15.26h15.256V.003Zm10.17 0h-5.085v10.174h5.085V.002Zm15.256 0h-10.17v15.26h10.17V.003Zm-10.17 15.261H15.272v25.434h15.256V15.263Zm-20.341 15.26H.017v10.174h10.17V30.523Zm0-10.173H.017v5.086h10.17V20.35Z" fill="#999"/><path opacity=".89" d="M40.698 30.523h-5.085v10.174h5.085V30.523Z" fill="#999"/><path d="M40.698 20.35h-5.085v5.086h5.085V20.35Z" fill="#999"/></svg>