<svg style="display: none;" aria-hidden="true" xmlns="http://www.w3.org/2000/svg" xmlns:xlink="http://www.w3.org/1999/xlink"><symbol viewBox="0 0 16 24" id="arrow-down"><path d="M16 16l-1.41-1.41L9 20.17V0H7v20.17l-5.58-5.59L0 16l8 8 8-8z"/></symbol><symbol viewBox="0 0 28 28" id="arrow-right"><path d="M10.172 19.283L15.455 14l-5.283-5.283 1.63-1.63L18.717 14l-6.913 6.914-1.63-1.63z"/></symbol><symbol viewBox="0 0 320 512" id="facebook"><path d="M279.14 288l14.22-92.66h-88.91v-60.13c0-25.35 12.42-50.06 52.24-50.06h40.42V6.26S260.43 0 225.36 0c-73.22 0-121.08 44.38-121.08 124.72v70.62H22.89V288h81.39v224h100.17V288z"/></symbol><symbol viewBox="0 0 24 24" id="instagram"><path d="M7.8 2h8.4A5.8 5.8 0 0122 7.8v8.4a5.8 5.8 0 01-5.8 5.8H7.8A5.8 5.8 0 012 16.2V7.8A5.8 5.8 0 017.8 2zm-.2 2A3.6 3.6 0 004 7.6v8.8A3.6 3.6 0 007.6 20h8.8a3.6 3.6 0 003.6-3.6V7.6A3.6 3.6 0 0016.4 4H7.6zm9.65 1.5a1.25 1.25 0 110 2.5 1.25 1.25 0 010-2.5zM12 7a5 5 0 110 10 5 5 0 010-10zm0 2a3 3 0 100 6 3 3 0 000-6z"/></symbol><symbol viewBox="0 0 15 15" id="search"><path d="M13.564 14.34L8.801 9.575a5 5 0 11.332-7.896 5 5 0 01.848 6.717l4.762 4.763-1.178 1.178-.001.001zM5.904 2.166a3.333 3.333 0 102.43 1.053l.505.5-.568-.567-.01-.01a3.31 3.31 0 00-2.357-.976z"/></symbol><symbol viewBox="0 0 24 24" id="twitter"><path d="M22.918 6.012a8.58 8.58 0 01-2.464.676 4.305 4.305 0 001.886-2.374 8.591 8.591 0 01-2.725 1.041 4.292 4.292 0 00-7.313 3.914 12.184 12.184 0 01-8.846-4.483 4.271 4.271 0 00-.58 2.157 4.29 4.29 0 001.908 3.572 4.276 4.276 0 01-1.943-.537v.054c0 2.08 1.479 3.814 3.442 4.209a4.296 4.296 0 01-1.938.073 4.296 4.296 0 004.009 2.98 8.61 8.61 0 01-5.33 1.838c-.347 0-.688-.02-1.024-.06A12.147 12.147 0 008.579 21c7.894 0 12.21-6.54 12.21-12.21 0-.187-.004-.372-.012-.556a8.719 8.719 0 002.141-2.222z"/></symbol></svg>