<svg xmlns="http://www.w3.org/2000/svg" viewBox="0 0 1578 512"><linearGradient id="a" x1="0" y1="0" x2="0" y2="1"><stop offset="0%" stop-color="#64d5ff"/><stop offset="100%" stop-color="#18ffff"/></linearGradient><path d="m1404.8 40.8-128 448c-4.9 17-22.6 26.8-39.6 22-17-4.9-26.8-22.6-22-39.6l128-448c4.9-17 22.6-26.8 39.6-22 17 4.9 26.8 22.6 22 39.6zm51.8 80.6 112 112c12.5 12.5 12.5 32.7 0 45.2l-112 112c-12.5 12.5-32.7 12.5-45.2 0s-12.5-32.7 0-45.2l89.3-89.4-89.3-89.4c-12.5-12.5-12.5-32.7 0-45.2s32.7-12.5 45.2 0zm-1290 45.2L77.3 256l89.4 89.4c12.5 12.5 12.5 32.7 0 45.2s-32.7 12.5-45.2 0l-112-112C-3 266.1-3 245.9 9.5 233.4l112-112c12.5-12.5 32.7-12.5 45.2 0s12.4 32.7-.1 45.2zm140.2 181.9v69.9c0 21.4-17.4 38.8-38.8 38.8s-38.8-17.4-38.8-38.8V93.6c0-21.4 17.4-38.8 38.8-38.8h98.8c21.9 0 41.7 3.2 59.4 9.5s32.7 15.2 45.2 26.5 22 24.9 28.7 40.8c6.7 15.8 10.1 33.4 10.1 52.8 0 18.1-3.4 34.7-10.1 50-6.7 15.3-16.3 28.5-28.7 39.7-12.4 11.1-27.5 19.9-45.2 26.1-17.7 6.3-37.5 9.4-59.4 9.4h-21.1c-21.5 0-38.9 17.4-38.9 38.9zm0-140.7c0 21.4 17.4 38.8 38.8 38.8h21.1c11.1 0 20.6-1.7 28.7-5 8.1-3.3 14.9-7.8 20.3-13.5s9.5-12.3 12.2-19.8c2.7-7.5 4-15.2 4-23.4 0-9.4-1.3-18.1-4-26.3-2.7-8.1-6.7-15.2-12.2-21.3-5.4-6.1-12.2-10.9-20.3-14.4-8.1-3.5-17.7-5.3-28.7-5.3h-21.1c-21.4 0-38.8 17.4-38.8 38.8v51.4zm480.9 82.8H678.3c-17.4 0-31.5 14.1-31.5 31.5v100.6c0 17.4-21.6 34.5-39 34.5s-39-17.1-39-34.5V86.3c0-17.4 14.1-31.5 31.5-31.5h208.9c17.4 0 31.5 14.1 31.5 31.5v.3c0 17.4-14.1 31.5-31.5 31.5h-131c-17.4 0-31.5 14.1-31.5 31.5V196c0 17.4 14.1 31.5 31.5 31.5h109.4c17.4 0 31.5 14.1 31.5 31.5.1 17.4-14 31.6-31.4 31.6zm381.4 112.8c0 19.2-33.5 34.4-47.8 40.8-20.9 9.4-43.6 15.1-66.3 17.4-46.2 4.6-93.3-4.8-127-38.8-50.9-51.3-48.4-126.4-47.7-193.4 1.1-96.8 56.1-187.1 162.9-179.5 45.7 3.2 88.9 22.9 109.8 65.7 6.7 13.6 10.6 37.6 3.2 47.6-6.3 8.5-22.6 13.1-32.4 13.1-11 0-21.4-3-28.8-13.2-12.6-17.4-11.1-33.9-33.9-44.9-45-21.6-82.5 11.5-95.1 53.1-9.2 30.2-7.5 62.2-7.5 93.4 0 31.6-.3 64.4 12.8 93.8 17.1 38.3 56.1 48.8 94.6 37.4 15.9-4.7 23.5-9.2 25.4-25.8 1.3-11.9 1.4-26.4.1-38.3-3.2-30.7-27.1-18.4-48.8-22.1-25.6-4.4-25.4-53.9.2-58 21.9-3.6 47.2-3 69.3-3 19.2 0 50.9-4.3 54.8 21.4 3.2 21.8 2.1 46.5 2.1 68.5 0 21.6.1 43.2.1 64.8zm0 0c0 19.2-26.1 30-47.8 40.8-20.5 10.2-43.6 15.1-66.3 17.4" fill="url(#a)"/></svg>