<svg style="display: none;" aria-hidden="true" xmlns="http://www.w3.org/2000/svg" xmlns:xlink="http://www.w3.org/1999/xlink"><symbol viewBox="0 0 17 17" id="arrow-top-right"><path d="M5.546 1.084l9.192.707m0 0l.707 9.192m-.707-9.192L1.262 15.268" stroke="#B6B6B6" stroke-width="2" stroke-linecap="round" stroke-linejoin="round"/></symbol><symbol viewBox="0 0 20 20" id="facebook"><path d="M0 10.06c0 2.396.85 4.713 2.397 6.535A9.99 9.99 0 008.437 20v-7.032H5.9V10.06h2.54V7.847a3.57 3.57 0 01.972-2.853 3.527 3.527 0 012.801-1.072c.75.013 1.5.08 2.24.202v2.474h-1.264a1.438 1.438 0 00-1.19.393 1.455 1.455 0 00-.438 1.18v1.89h2.771l-.443 2.908h-2.328V20a9.975 9.975 0 005.08-2.415 10.071 10.071 0 002.983-4.79c.519-1.85.5-3.811-.054-5.651a10.068 10.068 0 00-3.074-4.732A9.945 9.945 0 005.815.923 10.019 10.019 0 001.58 4.636 10.107 10.107 0 000 10.06z"/></symbol><symbol viewBox="0 0 24 24" id="instagram"><path d="M7.877 2.06C8.944 2.01 9.284 2 12 2s3.056.012 4.122.06c1.065.048 1.793.218 2.429.465a4.92 4.92 0 011.77 1.154c.51.5.903 1.103 1.153 1.77.248.636.417 1.364.466 2.427.05 1.069.06 1.409.06 4.124 0 2.716-.012 3.056-.06 4.123-.048 1.063-.218 1.79-.466 2.427a4.904 4.904 0 01-1.152 1.772c-.5.509-1.105.902-1.771 1.152-.636.248-1.364.417-2.427.466-1.068.05-1.408.06-4.124.06-2.716 0-3.056-.012-4.123-.06-1.063-.048-1.79-.218-2.427-.466a4.906 4.906 0 01-1.772-1.152 4.902 4.902 0 01-1.153-1.771c-.247-.636-.416-1.364-.465-2.427C2.01 15.056 2 14.716 2 12c0-2.716.012-3.056.06-4.122.048-1.065.218-1.793.465-2.429a4.905 4.905 0 011.154-1.77 4.902 4.902 0 011.77-1.154c.636-.247 1.364-.416 2.427-.465h.001zm8.164 1.8c-1.055-.048-1.371-.058-4.041-.058-2.67 0-2.986.01-4.04.058-.976.045-1.505.207-1.858.345-.467.181-.8.397-1.15.747a3.102 3.102 0 00-.747 1.15c-.138.353-.3.882-.345 1.857C3.812 9.014 3.802 9.33 3.802 12c0 2.67.01 2.986.058 4.04.045.976.207 1.506.345 1.858.16.434.415.828.747 1.15.323.332.716.588 1.15.748.353.137.882.3 1.857.344 1.055.048 1.37.058 4.041.058 2.67 0 2.986-.01 4.04-.058.976-.044 1.506-.207 1.858-.345.466-.181.8-.397 1.15-.747.332-.322.588-.716.748-1.15.137-.352.3-.882.344-1.857.048-1.055.058-1.371.058-4.041 0-2.67-.01-2.986-.058-4.04-.044-.976-.207-1.505-.345-1.858a3.106 3.106 0 00-.747-1.15 3.102 3.102 0 00-1.15-.747c-.352-.138-.882-.3-1.857-.345zm-5.318 11.223a3.335 3.335 0 102.4-6.224 3.336 3.336 0 00-2.4 6.224zM8.365 8.365a5.14 5.14 0 117.27 7.27 5.14 5.14 0 01-7.27-7.27zm9.915-.74a1.215 1.215 0 10-1.668-1.768 1.215 1.215 0 001.668 1.768z"/></symbol><symbol viewBox="0 0 24 24" id="search"><path d="M16.041 15.856a.995.995 0 00-.186.186A6.97 6.97 0 0111 18c-1.933 0-3.682-.782-4.95-2.05S4 12.933 4 11s.782-3.682 2.05-4.95S9.067 4 11 4s3.682.782 4.95 2.05S18 9.067 18 11a6.971 6.971 0 01-1.959 4.856zm5.666 4.437l-3.675-3.675A8.967 8.967 0 0020 11c0-2.485-1.008-4.736-2.636-6.364S13.485 2 11 2 6.264 3.008 4.636 4.636 2 8.515 2 11s1.008 4.736 2.636 6.364S8.515 20 11 20a8.967 8.967 0 005.618-1.968l3.675 3.675a.999.999 0 101.414-1.414z"/></symbol><symbol viewBox="0 0 512 512" id="twitter"><path d="M459.37 151.716c.325 4.548.325 9.097.325 13.645 0 138.72-105.583 298.558-298.558 298.558-59.452 0-114.68-17.219-161.137-47.106 8.447.974 16.568 1.299 25.34 1.299 49.055 0 94.213-16.568 130.274-44.832-46.132-.975-84.792-31.188-98.112-72.772 6.498.974 12.995 1.624 19.818 1.624 9.421 0 18.843-1.3 27.614-3.573-48.081-9.747-84.143-51.98-84.143-102.985v-1.299c13.969 7.797 30.214 12.67 47.431 13.319-28.264-18.843-46.781-51.005-46.781-87.391 0-19.492 5.197-37.36 14.294-52.954 51.655 63.675 129.3 105.258 216.365 109.807-1.624-7.797-2.599-15.918-2.599-24.04 0-57.828 46.782-104.934 104.934-104.934 30.213 0 57.502 12.67 76.67 33.137 23.715-4.548 46.456-13.32 66.599-25.34-7.798 24.366-24.366 44.833-46.132 57.827 21.117-2.273 41.584-8.122 60.426-16.243-14.292 20.791-32.161 39.308-52.628 54.253z"/></symbol><symbol viewBox="0 0 21 15" id="youtube"><path d="M20.593 2.203A2.506 2.506 0 0018.831.437C17.265.007 11 0 11 0S4.736-.007 3.169.404a2.56 2.56 0 00-1.766 1.778C.99 3.748.986 6.996.986 6.996s-.004 3.264.406 4.814c.23.857.905 1.534 1.763 1.765 1.582.43 7.83.437 7.83.437s6.265.007 7.831-.403a2.516 2.516 0 001.767-1.763c.414-1.565.417-4.812.417-4.812s.02-3.265-.407-4.831zM8.996 10.005l.005-6 5.207 3.005-5.212 2.995z"/></symbol></svg>